# xmcd CD database file
#
# Track frame offsets:
#	150
#	12605
#	24644
#	36349
#	50624
#	60120
#	70329
#	83862
#	93745
#	117327
#	130668
#	141832
#	154337
#	169751
#	186470
#	199999
#	218190
#	234485
#	248496
#	262521
#	277885
#	297223
#
# Disc length: 4221 seconds
#
# Revision: 0
# Processed by: cddbd v1.5PL3 Copyright (c) Steve Scherf et al.
# Submitted via: CDex 1.50
#
DISCID=40107b16
DTITLE=30 let ceske country - disk 1
DYEAR=1900
DGENRE=Country
TTITLE0=To vsechno odnes cas
TTITLE1=Sve bajno odhazuji v dal
TTITLE2=Ja zahadou se trapim
TTITLE3=Cekej tise
TTITLE4=Drahy muj
TTITLE5=Ta zem je tva zem
TTITLE6=T jako Texas
TTITLE7=Aljaska
TTITLE8=Zatim co ty spis
TTITLE9=Pole s bavlnou
TTITLE10=Blues folsomske veznice
TTITLE11=Haj modrinu
TTITLE12=El Paso
TTITLE13=Zavidim
TTITLE14=Ja tu zemi znam
TTITLE15=Dlouhy cerny zavoj
TTITLE16=Vysocina
TTITLE17=Nakladak
TTITLE18=To jsem ja, ten kovboj
TTITLE19=Sedm spanelskych andelu
TTITLE20=Vic nez pritel
TTITLE21=Medicinman
EXTD=
EXTT0=
EXTT1=
EXTT2=
EXTT3=
EXTT4=
EXTT5=
EXTT6=
EXTT7=
EXTT8=
EXTT9=
EXTT10=
EXTT11=
EXTT12=
EXTT13=
EXTT14=
EXTT15=
EXTT16=
EXTT17=
EXTT18=
EXTT19=
EXTT20=
EXTT21=
PLAYORDER=
